<svg xmlns="http://www.w3.org/2000/svg" width="330" height="330"><path d="M0 0h70v10H0zM110 0h10v10h-10zM130 0h40v10h-40zM180 0h20v10h-20zM220 0h10v10h-10zM240 0h10v10h-10zM260 0h70v10h-70zM0 10h10v10H0zM60 10h10v10H60zM110 10h20v10h-20zM140 10h20v10h-20zM170 10h10v10h-10zM190 10h20v10h-20zM240 10h10v10h-10zM260 10h10v10h-10zM320 10h10v10h-10zM0 20h10v10H0zM20 20h30v10H20zM60 20h10v10H60zM80 20h30v10H80zM140 20h20v10h-20zM180 20h20v10h-20zM210 20h10v10h-10zM230 20h20v10h-20zM260 20h10v10h-10zM280 20h30v10h-30zM320 20h10v10h-10zM0 30h10v10H0zM20 30h30v10H20zM60 30h10v10H60zM80 30h30v10H80zM120 30h10v10h-10zM150 30h10v10h-10zM170 30h10v10h-10zM200 30h50v10h-50zM260 30h10v10h-10zM280 30h30v10h-30zM320 30h10v10h-10zM0 40h10v10H0zM20 40h30v10H20zM60 40h10v10H60zM100 40h20v10h-20zM130 40h20v10h-20zM180 40h20v10h-20zM230 40h10v10h-10zM260 40h10v10h-10zM280 40h30v10h-30zM320 40h10v10h-10zM0 50h10v10H0zM60 50h10v10H60zM90 50h20v10H90zM120 50h20v10h-20zM150 50h10v10h-10zM170 50h40v10h-40zM220 50h10v10h-10zM240 50h10v10h-10zM260 50h10v10h-10zM320 50h10v10h-10zM0 60h70v10H0zM80 60h10v10H80zM100 60h10v10h-10zM120 60h10v10h-10zM140 60h10v10h-10zM160 60h10v10h-10zM180 60h10v10h-10zM200 60h10v10h-10zM220 60h10v10h-10zM240 60h10v10h-10zM260 60h70v10h-70zM90 70h30v10H90zM140 70h10v10h-10zM160 70h10v10h-10zM190 70h20v10h-20zM220 70h20v10h-20zM30 80h20v10H30zM60 80h20v10H60zM110 80h10v10h-10zM150 80h20v10h-20zM200 80h10v10h-10zM230 80h20v10h-20zM290 80h20v10h-20zM20 90h20v10H20zM50 90h10v10H50zM80 90h40v10H80zM130 90h10v10h-10zM160 90h30v10h-30zM220 90h20v10h-20zM250 90h10v10h-10zM270 90h40v10h-40zM50 100h20v10H50zM80 100h20v10H80zM130 100h20v10h-20zM170 100h10v10h-10zM200 100h20v10h-20zM230 100h20v10h-20zM260 100h20v10h-20zM290 100h40v10h-40zM0 110h10v10H0zM20 110h30v10H20zM70 110h30v10H70zM110 110h20v10h-20zM140 110h40v10h-40zM190 110h10v10h-10zM260 110h30v10h-30zM300 110h20v10h-20zM0 120h10v10H0zM20 120h60v10H20zM90 120h20v10H90zM130 120h30v10h-30zM190 120h60v10h-60zM260 120h10v10h-10zM290 120h10v10h-10zM310 120h10v10h-10zM20 130h10v10H20zM80 130h10v10H80zM100 130h20v10h-20zM140 130h30v10h-30zM180 130h60v10h-60zM250 130h10v10h-10zM270 130h10v10h-10zM310 130h10v10h-10zM10 140h30v10H10zM50 140h20v10H50zM100 140h10v10h-10zM140 140h20v10h-20zM180 140h20v10h-20zM250 140h10v10h-10zM270 140h10v10h-10zM290 140h20v10h-20zM0 150h10v10H0zM30 150h20v10H30zM70 150h20v10H70zM110 150h10v10h-10zM130 150h10v10h-10zM150 150h10v10h-10zM170 150h10v10h-10zM190 150h20v10h-20zM230 150h30v10h-30zM300 150h20v10h-20zM30 160h50v10H30zM120 160h10v10h-10zM140 160h10v10h-10zM170 160h10v10h-10zM200 160h10v10h-10zM250 160h50v10h-50zM310 160h10v10h-10zM0 170h30v10H0zM50 170h10v10H50zM80 170h10v10H80zM100 170h30v10h-30zM140 170h20v10h-20zM190 170h40v10h-40zM240 170h10v10h-10zM260 170h40v10h-40zM310 170h20v10h-20zM0 180h10v10H0zM50 180h60v10H50zM120 180h10v10h-10zM140 180h20v10h-20zM170 180h30v10h-30zM230 180h10v10h-10zM250 180h80v10h-80zM20 190h10v10H20zM40 190h10v10H40zM70 190h30v10H70zM110 190h20v10h-20zM140 190h10v10h-10zM180 190h10v10h-10zM230 190h40v10h-40zM290 190h20v10h-20zM320 190h10v10h-10zM10 200h10v10H10zM60 200h20v10H60zM90 200h10v10H90zM130 200h10v10h-10zM150 200h20v10h-20zM180 200h10v10h-10zM240 200h20v10h-20zM290 200h10v10h-10zM310 200h10v10h-10zM0 210h10v10H0zM20 210h10v10H20zM40 210h20v10H40zM90 210h20v10H90zM120 210h20v10h-20zM180 210h10v10h-10zM240 210h10v10h-10zM270 210h20v10h-20zM300 210h20v10h-20zM0 220h10v10H0zM20 220h20v10H20zM60 220h40v10H60zM110 220h10v10h-10zM140 220h30v10h-30zM200 220h40v10h-40zM260 220h10v10h-10zM290 220h10v10h-10zM310 220h20v10h-20zM0 230h10v10H0zM70 230h10v10H70zM100 230h10v10h-10zM150 230h30v10h-30zM190 230h10v10h-10zM220 230h10v10h-10zM280 230h10v10h-10zM300 230h30v10h-30zM0 240h20v10H0zM40 240h30v10H40zM80 240h10v10H80zM100 240h10v10h-10zM130 240h40v10h-40zM190 240h20v10h-20zM220 240h10v10h-10zM240 240h60v10h-60zM310 240h20v10h-20zM80 250h30v10H80zM170 250h20v10h-20zM210 250h40v10h-40zM280 250h20v10h-20zM310 250h10v10h-10zM0 260h70v10H0zM80 260h20v10H80zM120 260h10v10h-10zM190 260h20v10h-20zM230 260h20v10h-20zM260 260h10v10h-10zM280 260h20v10h-20zM0 270h10v10H0zM60 270h10v10H60zM110 270h10v10h-10zM160 270h10v10h-10zM180 270h70v10h-70zM280 270h40v10h-40zM0 280h10v10H0zM20 280h30v10H20zM60 280h10v10H60zM80 280h20v10H80zM110 280h10v10h-10zM130 280h10v10h-10zM150 280h10v10h-10zM170 280h20v10h-20zM210 280h80v10h-80zM310 280h10v10h-10zM0 290h10v10H0zM20 290h30v10H20zM60 290h10v10H60zM80 290h20v10H80zM110 290h50v10h-50zM170 290h20v10h-20zM210 290h20v10h-20zM250 290h10v10h-10zM270 290h10v10h-10zM310 290h10v10h-10zM0 300h10v10H0zM20 300h30v10H20zM60 300h10v10H60zM120 300h20v10h-20zM150 300h10v10h-10zM180 300h10v10h-10zM210 300h20v10h-20zM280 300h20v10h-20zM310 300h20v10h-20zM0 310h10v10H0zM60 310h10v10H60zM110 310h10v10h-10zM170 310h60v10h-60zM250 310h20v10h-20zM290 310h40v10h-40zM0 320h70v10H0zM110 320h70v10h-70zM200 320h10v10h-10zM220 320h30v10h-30zM280 320h10v10h-10z"/></svg>