<svg id="茨城県地域区分図" xmlns="http://www.w3.org/2000/svg" viewBox="0 0 526.5 673.5"><defs><style>.cls-1{fill:none;}.cls-1,.cls-2{stroke:#000;stroke-linejoin:round;stroke-width:0.5px;}.cls-2{fill:#569ad4;}</style></defs><g id="水戸市"><path id="_08201" data-name="08201" class="cls-1" d="M314,375.5l12-1-4-6,5-3,5-8,7,17,8-1v-2l7,1,2-2,4,4,2-4,3,1,5-1,5,11,12-2,6-8,7,4,12-13-15-13-14-5-9-8-4,4-4-4,2-8-3-4,1-2-5,5-5-7-5-8h4l-1-5-4-10-10,4-6-9-2,8-7-8-5-2,2,8,5,5-7,3-4,6-2-6-4,4H300l5,6,3,10-15,5v5l6,4,3,8-4,10,3,3-3,1,5,7Z" transform="translate(-6.75 -22.25)"/></g><g id="日立市"><path id="_08202" data-name="08202" class="cls-1" d="M403,266.5l-4,2,1,5,3,1h10l6,6,5,1,4-1-5-2h4l-1-4,3-3,1,2,5-24,3-2,3-18,17-29,2-12,10-8-1-5,1-12-8-4H450l-5-4-12,3-5-4-4-1-4,6-15-3-8-5-6,4-2,5,6,10v7l-4,1v6l-10,2-1,3,9,11,3,7,3-4h17l-1,12-3,14h2v5l4,6-1,6,5,10-5,3,1,3-4,1-2-3-2,6Z" transform="translate(-6.75 -22.25)"/></g><g id="土浦市"><path id="_08203" data-name="08203" class="cls-1" d="M216,521.5l-6,3,3,10,6,8,2-3,2,2,3-14,7,6,1-6h4l5-8,25,2-1-17-2-6,5-3,3,2,3-6-2-5-1,2-12-6-26-4,6-8-2-6-3-5-9-3v-2l-17-2-4,4,6,7-1,6-2,1,4,5-3,2-6-3,1,7,15,9-4,9,3,2-1,7,8,5Z" transform="translate(-6.75 -22.25)"/></g><g id="古河市"><path id="_08204" data-name="08204" class="cls-1" d="M17,473.5l8,2,14,4,1-7,9,2-2-11,12-1,1,10,11-2-1-7,13,4v-2l-3-18,2-2,4,5,1-8-5-12-4-5-7,3,1,9-7-10,3-12-17,7-25,14-5-5H16v5l-6-2-2,2-1,1v2l3,3-2,10,4,12,2,4Z" transform="translate(-6.75 -22.25)"/></g><g id="石岡市"><path id="_08205" data-name="08205" class="cls-1" d="M237,448.5l5-6h6l-5-6-1-3h4l8,2,5,9,5,2-2,4,4-2,3,5,5,5h-5l-1,7-9,11,25-1,12,5,10-4-20-15,1-8,3-3h-3v-4l15,1,1-3-8-1-7-10-5-1-13-9,4-16,7,1,1-5,8-1-5-5-16,3-6-5-13-10-7-12-14-3-11,3-6,6,4,10-8,12v13l-10,7,2,4,10,27,17,2Z" transform="translate(-6.75 -22.25)"/></g><g id="結城市"><path id="_08207" data-name="08207" class="cls-1" d="M83,428.5l1-2,3,3,3-3,6,5,3-2-2-6,5,2v-6l3-1-4-6-3-4,9-15-5-6,2-4-1-1-3-1,1-5H93l1-7H92l-2,5-10,1-6,10,3,10-9,20-3,12,7,10-1-9,7-3,4,5Z" transform="translate(-6.75 -22.25)"/></g><g id="龍ヶ崎市"><path id="_08208" data-name="08208" class="cls-1" d="M205,616.5l15,1,2-4,9-1,5,9,3-1-2-2,6-1,2-6,15-9,2-12,3-1-2-4-6-6h-7l-15-10v7l-3-2-4,11-2,3v-6l-8-8-3,8-9-6-2-4-2,1-3-12-7-16-2,4,6,10,1,11,6,9-10-4-4-7-1-9,2,14,9,6,8,6-2,10,9,5,3,8-9,5-2-2Z" transform="translate(-6.75 -22.25)"/></g><g id="下妻市"><path id="_08210" data-name="08210" class="cls-1" d="M164,438.5l-4,1-3-5h-8l-2-15v-3l-1,6-12-3-1,7-4-3-1-6v5l-6-1-3-9-8,5,1,3-7,1,5,6,3,13h6l-1,12,5,4-2,8-6,1-1-3,3-6-5-1-3,4,4,3-2,6,2,8,12-3,4-6,14,8,4-1,2-6,2-15,7-1-1-9,5-4,3,2Z" transform="translate(-6.75 -22.25)"/></g><g id="常総市"><path id="_08211" data-name="08211" class="cls-1" d="M143,550.5l6-3-5-4,1-2,16-10-1-7-5-9h-5l3-5-5-2,2-3-3-6,5-5-5-5,2-7-3-4,1-4-4,1-14-8-4,6-12,3-2-8-2,3v5l-9-3,1,9,1,5,18,13-2,11,6,7-2,2,5-2,2,3-1,3-5-3,5,5-4,6,1,3-4-2-8,4-3,4,3,25,5,1,3-6,14,1,2-9-2-5,3-2,2,5Z" transform="translate(-6.75 -22.25)"/></g><g id="常陸太田市"><path id="_08212" data-name="08212" class="cls-1" d="M334,197.5l10,10-4,10,6,14-4,2,6,9,4,5-5-1,1,5,7,14,13,9,4-2,2,4,3-6,5-2,7,2,7-2,4,5-1-5,4-2h3l2-6,2,3,4-1-1-3,5-3-5-10,1-6-4-6v-5h-2l3-14,1-12H395l-3,4-3-7-9-11,1-3,10-2v-6l4-1v-7l-6-10,2-5,6-4,1-8,2-4-3-6,2-8-6-2-5-6,5-7-3-10,9-13-2-8,5-11-13,2-1,3-3,5-9,12-9,3,1,5-4,3-1,4-7,3,1,4,2,20-5-4-5,5,1,8-2,1-8-4-5,3,1,4h4l1,5,4,1,2,6,1,4,4,5-5,6,4,8-3,5-5-1-4,4Z" transform="translate(-6.75 -22.25)"/></g><g id="高萩市"><path id="_08214" data-name="08214" class="cls-1" d="M397,151.5l8,5,15,3,4-6,4,1,5,4,12-3,5,4h12l8,4,2-7,3-6,2-19-14-2-5,2-2-5h-5l-7-8h-8l3-6,7-1,7-9-10-6-5-8-10-11-9-4-1-8-5-3-11,6-5,11,2,8-9,13,3,10-5,7,5,6,6,2-2,8,3,6-2,4Z" transform="translate(-6.75 -22.25)"/></g><g id="北茨城市"><path id="_08215" data-name="08215" class="cls-1" d="M446,111.5l-7,1-3,6h8l7,8h5l2,5,5-2,14,2,11-27,7-15,5-3,6,1,2-3-5-15-3,2v-3l-6-4-2,1,2,2-2-1-1-1-1,2-2-5-1,3-7-5-12,2-10-8-1-1-16-7-8,2-9-3-5-7-1-2-4-4v-6l-3-4-8,4-2,13,3,1,10,18-1,4,5,3,1,8,9,4,10,11,5,8,10,6Z" transform="translate(-6.75 -22.25)"/></g><g id="笠間市"><path id="_08216" data-name="08216" class="cls-1" d="M314,375.5l-11-6-5-7,3-1-3-3,4-10-3-8-6-4v-5l15-5-3-10-5-6-2-1-4-5-5,1-8-6-4,7-17,3h-5l-2-4-5,4-1-2-8,1-1,9-7,10,3,8-6,7,1,6-5,1-3,10,1,2,6,2,1,7,14,3,7,12,13,10,6,5,16-3,4-4,1,4,3-2-1,3,10,3,9-25Z" transform="translate(-6.75 -22.25)"/></g><g id="取手市"><path id="_08217" data-name="08217" class="cls-1" d="M204,618.5l1-2,1-5,2,2,9-5-3-8-9-5,2-10-8-6-2,3-15-1-14,7-12-13v9l-2,5h-4l-5,11h10l6,5,20,14,8-4,16,7Z" transform="translate(-6.75 -22.25)"/></g><g id="牛久市"><path id="_08219" data-name="08219" class="cls-1" d="M264,561.5l-3-4-10,6-5-4-6,8-6-5-5-5-2-8-8-7-6-8-2,5,2,7-5,3,3,7-6,6-6-1,3,12,2-1,2,4,9,6,3-8,8,8v6l2-3,4-11,3,2v-7l15,10h7l6,6,8-4Z" transform="translate(-6.75 -22.25)"/></g><g id="つくば市"><path id="_08220" data-name="08220" class="cls-1" d="M160,524.5l9,6,3,7-3-1-1,2,3,8,6-4,11,17,1,9,4,7,10,4-6-9-1-11-6-10,2-4,7,16,6,1,6-6-3-7,5-3-2-7,2-5-3-10,6-3,10-8-8-5,1-7-3-2,4-9-15-9-1-7,6,3,3-2-4-5,2-1,1-6-6-7,4-4-10-27-2-4h-6v2l-18,1,1-5v-1l-5,3,5,9h-7l2,6-6,2,1,3-3-2-5,4,1,9-7,1-2,15-2,6-1,4,3,4-2,7,5,5-5,5,3,6-2,3,5,2-3,5h5Z" transform="translate(-6.75 -22.25)"/></g><g id="ひたちなか市"><path id="_08221" data-name="08221" class="cls-1" d="M365,324.5l3,4-2,8,4,4,4-4,9,8,14,5,15,13h3l13-16,2-9-6-5-1-7,3-5-4,3,3-3h-3v-4l1-5h-1l-8-1-4-4-13-1-1-5h-3l-1-7-2,2-4-4v5l-5,2-1,13-3-1,1,5-4-1-8,8Z" transform="translate(-6.75 -22.25)"/></g><g id="鹿嶋市"><path id="_08222" data-name="08222" class="cls-1" d="M461,587.5l2-1,3-2-9-15,4-2,2,2-12-4-15-31-12-30-7,1-4,5-16,7,12,30,7,11v10l20,20,6,1h2Zm8-4,1-8Z" transform="translate(-6.75 -22.25)"/></g><g id="潮来市"><path id="_08223" data-name="08223" class="cls-1" d="M436,588.5l-20-20v-10l-7-11-15-1-5,10-3-8h-8l1,13-13,8,6,5,7-1,39,31,1-8,6-4,3-7Z" transform="translate(-6.75 -22.25)"/></g><g id="守谷市"><path id="_08224" data-name="08224" class="cls-1" d="M156,575.5l-14-7-7-6-14-1-3,6,1,4-2,6,2,5,7,3,19,15,5-11h4l2-5Z" transform="translate(-6.75 -22.25)"/></g><g id="常陸大宮市"><path id="_08225" data-name="08225" class="cls-1" d="M282,252.5l1-2h7l1-6,3-1,8,3,12,9,11,21,9-6-1-7h16l6,2-7-14-1-5,5,1-4-5-6-9,4-2-6-14,4-10-10-10,5-9,4-4,5,1,3-5-4-8,5-6-4-5-1-4-4,1-4,8-5-1-3,6-3-7-7,5-11-10-12-4,3-3h-4l-1-7-5,1-1,5-6,2-5-1-3,1-7,5-17,1-5,9,1,5,4,3-1,4,4,5,2,9-4,1,1,6,3,2,3,10-3,16,4,11v14l2,4,5-4,6,6,5-6,3,2Z" transform="translate(-6.75 -22.25)"/></g><g id="那珂市"><path id="_08226" data-name="08226" class="cls-1" d="M403,274.5l-3-1-4-5-7,2-7-2-5,2-3,6-2-4-4,2-13-9-6-2H333l1,7-9,6-3,3h9l2,12,1,1,6,9,10-4,4,10,1,5h-4l5,8,5,7,5-5,8-8,4,1-1-5,3,1,1-13,5-2v-5l4,4,2-2-1-9Z" transform="translate(-6.75 -22.25)"/></g><g id="筑西市"><path id="_08227" data-name="08227" class="cls-1" d="M105,421.5l7-1-1-3,8-5,3,9,6,1v-5l1,6,4,3,1-7,12,3,1-6v3l2,15h8l3,5,4-1,6-2-2-6h7l-5-9,5-3v1l1-21,3-2-4-2-4,2,1-30-8-17,7,2-5-4,1-7-19-1,1,5-6,1-5-4-2-3-3,7-1,9-8,1-15,7-1,14,2,1-6,6-2,4,5,6-9,15,3,4,4,6Z" transform="translate(-6.75 -22.25)"/></g><g id="坂東市"><path id="_08228" data-name="08228" class="cls-1" d="M101,482.5l-10-13-8-2-13-4,1,7,3,6,6,2H77v16l-2,12,7,5-16,6,26,26,4,14,17,9-3-25,3-4,8-4,4,2-1-3,4-6-5-5,5,3,1-3-2-3-5,2,2-2-6-7,2-11-18-13Z" transform="translate(-6.75 -22.25)"/></g><g id="稲敷市"><path id="_08229" data-name="08229" class="cls-1" d="M263,585.5l2,4-3,1-2,12,4,4,11,1v3h7l-1,4,8-1v3l4-4,2-9,3,5,17-11,4,7,25-5,6-2,5-6,11,9,9,2-6-5-1-7,3-2,8-15-7,1-6-5-23-17-35,3,1-4-12-4-10,15-2,3-3-2v-5l-1,4-4-3-13,2,7,20Z" transform="translate(-6.75 -22.25)"/></g><g id="かすみがうら市"><path id="_08230" data-name="08230" class="cls-1" d="M268,521.5l47,5,21-3-6-22-13-21-5-2-6-2-10,4-12-5-25,1,9-11,1-7h5l-5-5-3-5-4,2,2-4-5-2-5-9-8-2h-4l1,3,5,6h-6l-5,6-10,6v2l9,3,3,5,2,6-6,8,26,4,12,6,1-2,2,5-3,6-3-2-5,3,2,6Z" transform="translate(-6.75 -22.25)"/></g><g id="桜川市"><path id="_08231" data-name="08231" class="cls-1" d="M175,419.5l-1,5,18-1v-2h6l10-7v-13l8-12-4-10,6-6,11-3-1-7-6-2-1-2,3-10,5-1-1-6,6-7-3-8H218l-5-8-1,1H200l-2,7-4,1-16-4,1,8-3,5-9,3-1,7,5,4-7-2,8,17-1,30,4-2,4,2-3,2Z" transform="translate(-6.75 -22.25)"/></g><g id="神栖市"><path id="_08232" data-name="08232" class="cls-1" d="M443,589.5h-1l-6-1-8-3-3,7-6,4-1,8,14,21,1,3,8,2,22,7,7,8,4,9,9,15,31,23,13,3,6-3-10-6-12-18-43-75,1-10-3,10-2-2-10,8,6,16-2,1-5-9-3-12Zm18-2-17,2,10,6Z" transform="translate(-6.75 -22.25)"/></g><g id="行方市"><path id="_08233" data-name="08233" class="cls-1" d="M409,547.5l-12-30-10-20-1-15-7-1-2-5-4,2-2-1-1,4-15-1-6-8,4-11-8-4-2,7-12,9-5-10-14-1v16l5,2,13,21,6,22,7,29,23,17,13-8-1-13h8l3,8,5-10Z" transform="translate(-6.75 -22.25)"/></g><g id="鉾田市"><path id="_08234" data-name="08234" class="cls-1" d="M409,460.5l-9-53-7-4,1-2h-3v3l-6-4-2-6-12,2v16l-8,2v4l-12-1-2,5-2-6-4,6-6-2-2,7,15,14,1,5-6,11,8,4-4,11,6,8,15,1,1-4,2,1,4-2,2,5,7,1,1,15,10,20,16-7,4-5,7-1Z" transform="translate(-6.75 -22.25)"/></g><g id="つくばみらい市"><path id="_08235" data-name="08235" class="cls-1" d="M156,575.5l12,13,14-7,15,1,2-3-9-6-2-14-11-17-6,4-3-8,1-2,3,1-3-7-9-6,1,7-16,10-1,2,5,4-6,3-3,1-2-5-3,2,2,5-2,9,7,6Z" transform="translate(-6.75 -22.25)"/></g><g id="小美玉市"><path id="_08236" data-name="08236" class="cls-1" d="M302,447.5l-15-1v4h3l-3,3-1,8,20,15,6,2v-16l14,1,5,10,12-9,2-7,6-11-1-5-15-14-3-2-11-9,3-7-3-2-11-5-2-4-6,3-10-3,1-3-3,2-1-4-4,4,5,5-8,1-1,5-7-1-4,16,13,9,5,1,7,10,8,1Z" transform="translate(-6.75 -22.25)"/></g><g id="茨城町"><path id="_08302" data-name="08302" class="cls-1" d="M332,425.5l3,2,2-7,6,2,4-6,2,6,2-5,12,1v-4l8-2v-16l12-2,4-15-12,2-5-11-5,1-3-1-2,4-4-4-2,2-7-1v2l-8,1-7-17-5,8-5,3,4,6-12,1-3,1-9,25,6-3,2,4,11,5,3,2-3,7Z" transform="translate(-6.75 -22.25)"/></g><g id="大洗町"><path id="_08309" data-name="08309" class="cls-1" d="M385,400.5l6,4v-3h3l-1,2,7,4v-19l3-6,2-5,6-1-2,6v-4l4-2,2-14h-3l-12,13-7-4-6,8-4,15Z" transform="translate(-6.75 -22.25)"/></g><g id="城里町"><path id="_08310" data-name="08310" class="cls-1" d="M247,307.5l1,2,5-4,2,4h5l17-3,4-7,8,6,5-1,4,5,2,1h10l4-4,2,6,4-6,7-3-5-5-2-8,5,2,7,8,2-8-1-1-2-12h-9l3-3-11-21-12-9-8-3-3,1-1,6h-7l-1,2v4l-3-2-5,6-6-6-5,4,2,3-6,1,1,4-9,3-1,9-11,18v12Z" transform="translate(-6.75 -22.25)"/></g><g id="東海村"><path id="_08341" data-name="08341" class="cls-1" d="M424,281.5l-5-1-6-6H403l-12,10,1,9,1,7h3l1,5,13,1,4,4,8,1v-3l8,1v-6H420l3-1Z" transform="translate(-6.75 -22.25)"/></g><g id="大子町"><path id="_08364" data-name="08364" class="cls-1" d="M284,153.5l6-2,1-5,5-1,1,7h4l-3,3,12,4,11,10,7-5,3,7,3-6,5,1,4-8,4-1-2-6-4-1-1-5h-4l-1-4,5-3,8,4,2-1-1-8,5-5,5,4-2-20-1-4-3-6-8-11-4,2-3-2-4-6-10-1-7-2-5-25-11-2-7-6-3-9-15-13-5,3-4-1-7,6,3,26-2,13,5,10,2,20-1,7-5,1,1,3v3l2,3-2,5,12,14,4,12Z" transform="translate(-6.75 -22.25)"/></g><g id="美浦村"><path id="_08442" data-name="08442" class="cls-1" d="M287,562.5l10-15,12,4-1,4,35-3-7-29-21,3-47-5,1,12,5,16-2,3,5,7,4,3,1-4v5l3,2Z" transform="translate(-6.75 -22.25)"/></g><g id="阿見町"><path id="_08443" data-name="08443" class="cls-1" d="M277,559.5l-5-7,2-3-5-16-1-12-25-2-5,8h-4l-1,6-7-6-3,14-2-2-2,3,8,7,2,8,5,5,6,5,6-8,5,4,10-6,3,4Z" transform="translate(-6.75 -22.25)"/></g><g id="河内町"><path id="_08447" data-name="08447" class="cls-1" d="M244,627.5l9,4,9-4,10-7,6,2,14,3,13-10,4-7,8-4h2l-4-7-17,11-3-5-2,9-4,4v-3l-8,1,1-4h-7v-3l-11-1-4-4-15,9-2,6-6,1,2,2h7Z" transform="translate(-6.75 -22.25)"/></g><g id="八千代町"><path id="_08521" data-name="08521" class="cls-1" d="M111,468.5l2-6-4-3,3-4,5,1-3,6,1,3,6-1,2-8-5-4,1-12h-6l-3-13-5-6v-3l-3,1v6l-5-2,2,6-3,2-6-5-3,3-3-3-1,2-1,2,5,12-1,8-4-5-2,2,3,18v2l8,2,10,13-1-9,9,3v-5Z" transform="translate(-6.75 -22.25)"/></g><g id="五霞町"><path id="_08542" data-name="08542" class="cls-1" d="M51,491.5l-12-12-14-4-8-2,8,16,1,12,17,3,4-5v-1Z" transform="translate(-6.75 -22.25)"/></g><g id="境町"><path id="_08546" data-name="08546" class="cls-1" d="M77,494.5v-16h3l-6-2-3-6-11,2-1-10-12,1,2,11-9-2-1,7,12,12,6,6,9,20,16-6-7-5Z" transform="translate(-6.75 -22.25)"/></g><g id="利根町"><path id="_08564" data-name="08564" class="cls-1" d="M244,627.5l2-7h-7l-3,1-5-9-9,1-2,4-15-1-1,2,1,4,9,14h9Z" transform="translate(-6.75 -22.25)"/></g><path id="湖" class="cls-2" d="M287,463.5v-3h4l12,12,9-6,8,7,8,13,1,11,6,4,3,12,20,30,4,15,11,5v11l-4,2-9-3-11-6,1-4-19-8-6,4-17-3-3,8-1-9,14-7-11-14-13,1-4-3-9,3-30-11-5-19-4,1,6-4,7,2,2,7,15,1,8,4,6-5,11,5,16-1,12-13-8-7,3-3-20-12-1-6-13-8Zm-90,96-1-2,3,2,3,14,7,6-2,6-6-5,2-1Zm155-393,6,2-4,1Zm-77,146-5,1,5-3Zm113,197h2l1-7-8-5,4-5-3-2,2-4-5-5,2-3-4-8,6,5,2,14,4,4-3,4,5,1v7l12,15,1,13,6,2-2,9,7,4,4,11-4,7,8,5-1,7-4-5-7-2-4-9,4-2-23-17h5l6-10-10-5h6l2-4-6-4,2-4-9-5Zm27,79,10,5-4,13-7-4,2-2-4-5Zm-27-207-3,18H356l11-7,16-1Z" transform="translate(-6.75 -22.25)"/></svg>