<?xml version="1.0" encoding="utf-8"?>
<!-- Generator: Adobe Illustrator 24.1.0, SVG Export Plug-In . SVG Version: 6.00 Build 0)  -->
<svg version="1.1" id="茨城県地域区分図" xmlns="http://www.w3.org/2000/svg" xmlns:xlink="http://www.w3.org/1999/xlink"
	 x="0px" y="0px" viewBox="0 0 560 772" style="enable-background:new 0 0 560 772;" xml:space="preserve">
<style type="text/css">
	.st0{fill:none;stroke:#000000;stroke-width:0.5;stroke-linejoin:round;}
	.st1{fill:#AAABAB;stroke:#000000;stroke-width:0.5;stroke-linejoin:round;}
</style>
<desc>Author: Lincun</desc>
<g>
	<path id="Mito" class="st0" d="M314,375.5l12-1l-4-6l5-3l5-8l7,17l8-1v-2l7,1l2-2l4,4l2-4l3,1l5-1l5,11l12-2l6-8l7,4l12-13l-15-13
		l-14-5l-9-8l-4,4l-4-4l2-8l-3-4l1-2l-5,5l-5-7l-5-8h4l-1-5l-4-10l-10,4l-6-9l-2,8l-7-8l-5-2l2,8l5,5l-7,3l-4,6l-2-6l-4,4h-10l5,6
		l3,10l-15,5v5l6,4l3,8l-4,10l3,3l-3,1l5,7L314,375.5z"/>
	<path id="Hitachi" class="st0" d="M403,266.5l-4,2l1,5l3,1h10l6,6l5,1l4-1l-5-2h4l-1-4l3-3l1,2l5-24l3-2l3-18l17-29l2-12l10-8l-1-5
		l1-12l-8-4h-12l-5-4l-12,3l-5-4l-4-1l-4,6l-15-3l-8-5l-6,4l-2,5l6,10v7l-4,1v6l-10,2l-1,3l9,11l3,7l3-4h17l-1,12l-3,14h2v5l4,6
		l-1,6l5,10l-5,3l1,3l-4,1l-2-3l-2,6H403z"/>
	<path id="Tsuchiura" class="st0" d="M216,521.5l-6,3l3,10l6,8l2-3l2,2l3-14l7,6l1-6h4l5-8l25,2l-1-17l-2-6l5-3l3,2l3-6l-2-5l-1,2
		l-12-6l-26-4l6-8l-2-6l-3-5l-9-3v-2l-17-2l-4,4l6,7l-1,6l-2,1l4,5l-3,2l-6-3l1,7l15,9l-4,9l3,2l-1,7l8,5L216,521.5z"/>
	<path id="Koga" class="st0" d="M17,473.5l8,2l14,4l1-7l9,2l-2-11l12-1l1,10l11-2l-1-7l13,4v-2l-3-18l2-2l4,5l1-8l-5-12l-4-5l-7,3
		l1,9l-7-10l3-12l-17,7l-25,14l-5-5h-5v5l-6-2l-2,2l-1,1v2l3,3l-2,10l4,12l2,4L17,473.5z"/>
	<path id="Ishioka" class="st0" d="M237,448.5l5-6h6l-5-6l-1-3h4l8,2l5,9l5,2l-2,4l4-2l3,5l5,5h-5l-1,7l-9,11l25-1l12,5l10-4l-20-15
		l1-8l3-3h-3v-4l15,1l1-3l-8-1l-7-10l-5-1l-13-9l4-16l7,1l1-5l8-1l-5-5l-16,3l-6-5l-13-10l-7-12l-14-3l-11,3l-6,6l4,10l-8,12v13
		l-10,7l2,4l10,27l17,2L237,448.5z"/>
	<path id="Yuuki" class="st0" d="M83,428.5l1-2l3,3l3-3l6,5l3-2l-2-6l5,2v-6l3-1l-4-6l-3-4l9-15l-5-6l2-4l-1-1l-3-1l1-5h-8l1-7h-2
		l-2,5l-10,1l-6,10l3,10l-9,20l-3,12l7,10l-1-9l7-3l4,5L83,428.5z"/>
	<path id="Ryuugasaki" class="st0" d="M205,616.5l15,1l2-4l9-1l5,9l3-1l-2-2l6-1l2-6l15-9l2-12l3-1l-2-4l-6-6h-7l-15-10v7l-3-2
		l-4,11l-2,3v-6l-8-8l-3,8l-9-6l-2-4l-2,1l-3-12l-7-16l-2,4l6,10l1,11l6,9l-10-4l-4-7l-1-9l2,14l9,6l8,6l-2,10l9,5l3,8l-9,5l-2-2
		L205,616.5z"/>
	<path id="Shimotsuma" class="st0" d="M164,438.5l-4,1l-3-5h-8l-2-15v-3l-1,6l-12-3l-1,7l-4-3l-1-6v5l-6-1l-3-9l-8,5l1,3l-7,1l5,6
		l3,13h6l-1,12l5,4l-2,8l-6,1l-1-3l3-6l-5-1l-3,4l4,3l-2,6l2,8l12-3l4-6l14,8l4-1l2-6l2-15l7-1l-1-9l5-4l3,2L164,438.5z"/>
	<path id="Joso" class="st0" d="M143,550.5l6-3l-5-4l1-2l16-10l-1-7l-5-9h-5l3-5l-5-2l2-3l-3-6l5-5l-5-5l2-7l-3-4l1-4l-4,1l-14-8
		l-4,6l-12,3l-2-8l-2,3v5l-9-3l1,9l1,5l18,13l-2,11l6,7l-2,2l5-2l2,3l-1,3l-5-3l5,5l-4,6l1,3l-4-2l-8,4l-3,4l3,25l5,1l3-6l14,1l2-9
		l-2-5l3-2l2,5L143,550.5z"/>
	<path id="Hitachiota" class="st0" d="M334,197.5l10,10l-4,10l6,14l-4,2l6,9l4,5l-5-1l1,5l7,14l13,9l4-2l2,4l3-6l5-2l7,2l7-2l4,5
		l-1-5l4-2h3l2-6l2,3l4-1l-1-3l5-3l-5-10l1-6l-4-6v-5h-2l3-14l1-12h-17l-3,4l-3-7l-9-11l1-3l10-2v-6l4-1v-7l-6-10l2-5l6-4l1-8l2-4
		l-3-6l2-8l-6-2l-5-6l5-7l-3-10l9-13l-2-8l5-11l-13,2l-1,3l-3,5l-9,12l-9,3l1,5l-4,3l-1,4l-7,3l1,4l2,20l-5-4l-5,5l1,8l-2,1l-8-4
		l-5,3l1,4h4l1,5l4,1l2,6l1,4l4,5l-5,6l4,8l-3,5l-5-1l-4,4L334,197.5z"/>
	<path id="Takahagi" class="st0" d="M397,151.5l8,5l15,3l4-6l4,1l5,4l12-3l5,4h12l8,4l2-7l3-6l2-19l-14-2l-5,2l-2-5h-5l-7-8h-8l3-6
		l7-1l7-9l-10-6l-5-8l-10-11l-9-4l-1-8l-5-3l-11,6l-5,11l2,8l-9,13l3,10l-5,7l5,6l6,2l-2,8l3,6l-2,4L397,151.5z"/>
	<path id="Kitaibaraki" class="st0" d="M446,111.5l-7,1l-3,6h8l7,8h5l2,5l5-2l14,2l11-27l7-15l5-3l6,1l2-3l-5-15l-3,2v-3l-6-4l-2,1
		l2,2l-2-1l-1-1l-1,2l-2-5l-1,3l-7-5l-12,2l-10-8l-1-1l-16-7l-8,2l-9-3l-5-7l-1-2l-4-4v-6l-3-4l-8,4l-2,13l3,1l10,18l-1,4l5,3l1,8
		l9,4l10,11l5,8l10,6L446,111.5z"/>
	<path id="Kasama" class="st0" d="M314,375.5l-11-6l-5-7l3-1l-3-3l4-10l-3-8l-6-4v-5l15-5l-3-10l-5-6l-2-1l-4-5l-5,1l-8-6l-4,7
		l-17,3h-5l-2-4l-5,4l-1-2l-8,1l-1,9l-7,10l3,8l-6,7l1,6l-5,1l-3,10l1,2l6,2l1,7l14,3l7,12l13,10l6,5l16-3l4-4l1,4l3-2l-1,3l10,3
		l9-25L314,375.5z"/>
	<path id="Toride" class="st0" d="M204,618.5l1-2l1-5l2,2l9-5l-3-8l-9-5l2-10l-8-6l-2,3l-15-1l-14,7l-12-13v9l-2,5h-4l-5,11h10l6,5
		l20,14l8-4l16,7L204,618.5z"/>
	<path id="Ushiku" class="st0" d="M264,561.5l-3-4l-10,6l-5-4l-6,8l-6-5l-5-5l-2-8l-8-7l-6-8l-2,5l2,7l-5,3l3,7l-6,6l-6-1l3,12l2-1
		l2,4l9,6l3-8l8,8v6l2-3l4-11l3,2v-7l15,10h7l6,6l8-4L264,561.5z"/>
	<path id="Tsukuba" class="st0" d="M160,524.5l9,6l3,7l-3-1l-1,2l3,8l6-4l11,17l1,9l4,7l10,4l-6-9l-1-11l-6-10l2-4l7,16l6,1l6-6
		l-3-7l5-3l-2-7l2-5l-3-10l6-3l10-8l-8-5l1-7l-3-2l4-9l-15-9l-1-7l6,3l3-2l-4-5l2-1l1-6l-6-7l4-4l-10-27l-2-4h-6v2l-18,1l1-5v-1
		l-5,3l5,9h-7l2,6l-6,2l1,3l-3-2l-5,4l1,9l-7,1l-2,15l-2,6l-1,4l3,4l-2,7l5,5l-5,5l3,6l-2,3l5,2l-3,5h5L160,524.5z"/>
	<path id="Hitachinaka" class="st0" d="M365,325.5l3,4l-2,8l4,4l4-4l9,8l14,5l15,13h3l13-16l2-9l-6-5l-1-7l3-5l-4,3l3-3h-3v-4l1-5h5
		h-6l-8-1l-4-4l-13-1l-1-5h-3l-1-7l-2,2l-4-4v5l-5,2l-1,13l-3-1l1,5l-4-1l-8,8L365,325.5z"/>
	<path id="Kashima" class="st0" d="M461,587.5l2-1l3-2l-9-15l4-2l2,2l-12-4l-15-31l-12-30l-7,1l-4,5l-16,7l12,30l7,11v10l20,20l6,1
		h1h1L461,587.5z M469,583.5l1-8L469,583.5z"/>
	<path id="Itako" class="st0" d="M436,588.5l-20-20v-10l-7-11l-15-1l-5,10l-3-8h-8l1,13l-13,8l6,5l7-1l39,31l1-8l6-4l3-7L436,588.5z
		"/>
	<path id="Moriya" class="st0" d="M156,575.5l-14-7l-7-6l-14-1l-3,6l1,4l-2,6l2,5l7,3l19,15l5-11h4l2-5V575.5z"/>
	<path id="Hitachiomiya" class="st0" d="M282,252.5l1-2h7l1-6l3-1l8,3l12,9l11,21l9-6l-1-7h16l6,2l-7-14l-1-5l5,1l-4-5l-6-9l4-2
		l-6-14l4-10l-10-10l5-9l4-4l5,1l3-5l-4-8l5-6l-4-5l-1-4l-4,1l-4,8l-5-1l-3,6l-3-7l-7,5l-11-10l-12-4l3-3h-4l-1-7l-5,1l-1,5l-6,2
		l-5-1l-3,1l-7,5l-17,1l-5,9l1,5l4,3l-1,4l4,5l2,9l-4,1l1,6l3,2l3,10l-3,16l4,11v14l2,4l5-4l6,6l5-6l3,2V252.5z"/>
	<path id="Naka" class="st0" d="M403,274.5l-3-1l-4-5l-7,2l-7-2l-5,2l-3,6l-2-4l-4,2l-13-9l-6-2h-16l1,7l-9,6l-3,3h9l2,12l1,1l6,9
		l10-4l4,10l1,5h-4l5,8l5,7l5-5l8-8l4,1l-1-5l3,1l1-13l5-2v-5l4,4l2-2l-1-9L403,274.5z"/>
	<path id="Chikusei" class="st0" d="M105,421.5l7-1l-1-3l8-5l3,9l6,1v-5l1,6l4,3l1-7l12,3l1-6v3l2,15h8l3,5l4-1l6-2l-2-6h7l-5-9l5-3
		v1l1-21l3-2l-4-2l-4,2l1-30l-8-17l7,2l-5-4l1-7l-19-1l1,5l-6,1l-5-4l-2-3l-3,7l-1,9l-8,1l-15,7l-1,14l2,1l-6,6l-2,4l5,6l-9,15l3,4
		l4,6V421.5z"/>
	<path id="Bando" class="st0" d="M101,482.5l-10-13l-8-2l-13-4l1,7l3,6l6,2h-3v16l-2,12l7,5l-16,6l26,26l4,14l17,9l-3-25l3-4l8-4
		l4,2l-1-3l4-6l-5-5l5,3l1-3l-2-3l-5,2l2-2l-6-7l2-11l-18-13L101,482.5z"/>
	<path id="Inashiki" class="st0" d="M263,585.5l2,4l-3,1l-2,12l4,4l11,1v3h7l-1,4l8-1v3l4-4l2-9l3,5l17-11l4,7l25-5l6-2l5-6l11,9
		l9,2l-6-5l-1-7l3-2l8-15l-7,1l-6-5l-23-17l-35,3l1-4l-12-4l-10,15l-2,3l-3-2v-5l-1,4l-4-3l-13,2l7,20L263,585.5z"/>
	<path id="Kasumigaura" class="st0" d="M268,521.5l47,5l21-3l-6-22l-13-21l-5-2l-6-2l-10,4l-12-5l-25,1l9-11l1-7h5l-5-5l-3-5l-4,2
		l2-4l-5-2l-5-9l-8-2h-4l1,3l5,6h-6l-5,6l-10,6v2l9,3l3,5l2,6l-6,8l26,4l12,6l1-2l2,5l-3,6l-3-2l-5,3l2,6L268,521.5z"/>
	<path id="Sakuragawa" class="st0" d="M175,419.5l-1,5l18-1v-2h6l10-7v-13l8-12l-4-10l6-6l11-3l-1-7l-6-2l-1-2l3-10l5-1l-1-6l6-7
		l-3-8h-13l-5-8l-1,1h-12l-2,7l-4,1l-16-4l1,8l-3,5l-9,3l-1,7l5,4l-7-2l8,17l-1,30l4-2l4,2l-3,2L175,419.5z"/>
	<path id="Kamisu" class="st0" d="M443,589.5h-1l-6-1l-8-3l-3,7l-6,4l-1,8l14,21l1,3l8,2l22,7l7,8l4,9l9,15l31,23l13,3l6-3l-10-6
		l-12-18l-43-75l1-10l-3,10l-2-2l-10,8l6,16l-2,1l-5-9l-3-12L443,589.5z M461,587.5l-17,2l10,6L461,587.5z"/>
	<path id="Namegata" class="st0" d="M409,547.5l-12-30l-10-20l-1-15l-7-1l-2-5l-4,2l-2-1l-1,4l-15-1l-6-8l4-11l-8-4l-2,7l-12,9
		l-5-10l-14-1v16l5,2l13,21l6,22l7,29l23,17l13-8l-1-13h8l3,8l5-10L409,547.5z"/>
	<path id="Hokota" class="st0" d="M409,460.5l-9-53l-7-4l1-2h-3v3l-6-4l-2-6l-12,2v16l-8,2v4l-12-1l-2,5l-2-6l-4,6l-6-2l-2,7l15,14
		l1,5l-6,11l8,4l-4,11l6,8l15,1l1-4l2,1l4-2l2,5l7,1l1,15l10,20l16-7l4-5l7-1L409,460.5z"/>
	<path id="Tsukubamirai" class="st0" d="M156,575.5l12,13l14-7l15,1l2-3l-9-6l-2-14l-11-17l-6,4l-3-8l1-2l3,1l-3-7l-9-6l1,7l-16,10
		l-1,2l5,4l-6,3l-3,1l-2-5l-3,2l2,5l-2,9l7,6L156,575.5z"/>
	<path id="Omitama" class="st0" d="M302,447.5l-15-1v4h3l-3,3l-1,8l20,15l6,2v-16l14,1l5,10l12-9l2-7l6-11l-1-5l-15-14l-3-2l-11-9
		l3-7l-3-2l-11-5l-2-4l-6,3l-10-3l1-3l-3,2l-1-4l-4,4l5,5l-8,1l-1,5l-7-1l-4,16l13,9l5,1l7,10l8,1L302,447.5z"/>
	<path id="Ibaraki" class="st0" d="M332,425.5l3,2l2-7l6,2l4-6l2,6l2-5l12,1v-4l8-2v-16l12-2l4-15l-12,2l-5-11l-5,1l-3-1l-2,4l-4-4
		l-2,2l-7-1v2l-8,1l-7-17l-5,8l-5,3l4,6l-12,1l-3,1l-9,25l6-3l2,4l11,5l3,2l-3,7L332,425.5z"/>
	<path id="Oarai" class="st0" d="M385,400.5l6,4v-3h3l-1,2l7,4v-19l3-6l2-5l6-1l-2,6v-4l4-2l2-14h-3l-12,13l-7-4l-6,8l-4,15
		L385,400.5z"/>
	<path id="Shirosato" class="st0" d="M247,307.5l1,2l5-4l2,4h5l17-3l4-7l8,6l5-1l4,5l2,1h10l4-4l2,6l4-6l7-3l-5-5l-2-8l5,2l7,8l2-8
		l-1-1l-2-12h-9l3-3l-11-21l-12-9l-8-3l-3,1l-1,6h-7l-1,2v4l-3-2l-5,6l-6-6l-5,4l2,3l-6,1l1,4l-9,3l-1,9l-11,18v10v2L247,307.5z"/>
	<path id="Tokai" class="st0" d="M424,281.5l-5-1l-6-6h-10l-12,10l1,9l1,7h3l1,5l13,1l4,4l8,1v-3l8,1v-6h-10l3-1L424,281.5z"/>
	<path id="Daigo" class="st0" d="M284,153.5l6-2l1-5l5-1l1,7h4l-3,3l12,4l11,10l7-5l3,7l3-6l5,1l4-8l4-1l-2-6l-4-1l-1-5h-4l-1-4l5-3
		l8,4l2-1l-1-8l5-5l5,4l-2-20l-1-4l-3-6l-8-11l-4,2l-3-2l-4-6l-10-1l-7-2l-5-25l-11-2l-7-6l-3-9l-15-13l-5,3l-4-1l-7,6l3,26l-2,13
		l5,10l2,20l-1,7l-5,1l1,3v3l2,3l-2,5l12,14l4,12L284,153.5z"/>
	<path id="Miho" class="st0" d="M287,562.5l10-15l12,4l-1,4l35-3l-7-29l-21,3l-47-5l1,12l5,16l-2,3l5,7l4,3l1-4v5l3,2L287,562.5z"/>
	<path id="Ami" class="st0" d="M277,559.5l-5-7l2-3l-5-16l-1-12l-25-2l-5,8h-4l-1,6l-7-6l-3,14l-2-2l-2,3l8,7l2,8l5,5l6,5l6-8l5,4
		l10-6l3,4L277,559.5z"/>
	<path id="Kawachi" class="st0" d="M244,627.5l9,4l9-4l10-7l6,2l14,3l13-10l4-7l8-4h2l-4-7l-17,11l-3-5l-2,9l-4,4v-3l-8,1l1-4h-7v-3
		l-11-1l-4-4l-15,9l-2,6l-6,1l2,2h7L244,627.5z"/>
	<path id="Yachiyo" class="st0" d="M111,468.5l2-6l-4-3l3-4l5,1l-3,6l1,3l6-1l2-8l-5-4l1-12h-6l-3-13l-5-6v-3l-3,1v6l-5-2l2,6l-3,2
		l-6-5l-3,3l-3-3l-1,2l-1,2l5,12l-1,8l-4-5l-2,2l3,18v2l8,2l10,13l-1-9l9,3v-5L111,468.5z"/>
	<path id="Goka" class="st0" d="M51,491.5l-12-12l-14-4l-8-2l8,16l1,12l17,3l4-5v-1L51,491.5z"/>
	<path id="Sakai" class="st0" d="M77,494.5v-16h3l-6-2l-3-6l-11,2l-1-10l-12,1l2,11l-9-2l-1,7l12,12l6,6l9,20l16-6l-7-5L77,494.5z"
		/>
	<path id="Tone" class="st0" d="M244,627.5l2-7h-7l-3,1l-5-9l-9,1l-2,4l-15-1l-1,2l1,4l9,14h9L244,627.5z"/>
	<path id="湖" class="st1" d="M287,463.5v-3h4l12,12l9-6l8,7l8,13l1,11l6,4l3,12l20,30l4,15l11,5v11l-4,2l-9-3l-11-6l1-4l-19-8
		l-6,4l-17-3l-3,8l-1-9l14-7l-11-14l-13,1l-4-3l-9,3l-30-11l-5-19l-4,1l6-4l7,2l2,7l15,1l8,4l6-5l11,5l16-1l12-13l-8-7l3-3l-20-12
		l-1-6l-13-8L287,463.5z M197,559.5l-1-2l3,2l3,14l7,6l-2,6l-6-5l2-1L197,559.5z M352,166.5l6,2l-4,1L352,166.5z M275,312.5l-5,1
		l5-3V312.5z M388,509.5h2l1-7l-8-5l4-5l-3-2l2-4l-5-5l2-3l-4-8l6,5l2,14l4,4l-3,4l5,1v7l12,15l1,13l6,2l-2,9l7,4l4,11l-4,7l8,5
		l-1,7l-4-5l-7-2l-4-9l4-2l-23-17h5l6-10l-10-5h6l2-4l-6-4l2-4l-9-5L388,509.5z M415,588.5l10,5l-4,13l-7-4l2-2l-4-5L415,588.5z
		 M388,381.5l-3,18h-29l11-7l16-1L388,381.5z"/>
</g>
</svg>
