<svg xmlns="http://www.w3.org/2000/svg" width="469.333" height="138.666" viewBox="0 0 440 130"><path fill="#555" d="M167.98 46.72h4.61v-11.3h29.11v11.3h4.71v-11.3h23.21V31h-23.21v-8.83h-4.71V31h-29.11v-8.83h-4.61V31h-23.71v4.42h23.71v11.3zm-23.62 13.7h26.37V56h-26.37v4.42zm27.55 19.69c-10.99 6.06-22.35 12.03-29.8 15.81l2.55 4.17c7.93-4.26 18.62-10.23 28.62-15.81l-1.37-4.17zm29.4-19.69h21.66c-2.06 5.92-4.91 12.44-7.25 16.78l4.01 1.38c3.24-5.33 6.86-14.11 9.5-21.69L226 55.7l-.98.3h-40.77c1.47-3.89 2.84-7.98 4.02-12.08l-4.71-1c-3.33 12.1-8.62 24.02-15.18 31.91 1.28.59 3.32 1.98 4.21 2.67 3.63-4.64 6.96-10.47 9.8-17.08h14.11v8.39c0 6.31-2.94 29.03-33.61 39.3.97.89 2.34 2.77 2.84 3.66 24.21-8.6 31.94-25.77 33.22-33.47 1.17 7.59 8.93 25.28 29.89 33.47.69-.99 2.16-2.96 3.05-4.15-27.25-9.68-30.58-32.79-30.58-38.81v-8.39zm124.66-26.34c-2.75-3.24-8.35-7.75-13.05-10.78l-3.23 2.45c4.7 3.23 10.29 7.94 13.04 11.08l3.24-2.75zm-57.53 48.7l-10.69 4.02V51h10.3v-4.41h-10.3v-23.5h-4.52v23.5h-11.35V51h11.35v37.45c-4.59 1.67-8.81 3.24-12.25 4.43l1.58 4.81c7.64-3.16 17.35-6.88 26.75-10.71l-.87-4.2zm53.4-28.39c-2.73 10.56-6.26 19.86-10.96 28-1.88-10.3-3.24-23.72-3.83-39.97h21.65V38h-21.75c-.2-5.09-.2-10.48-.2-15.98h-4.61c.11 5.5.2 10.79.3 15.98h-29.6v29.78c0 12.75-1.07 29.3-11.07 41.47 1.07.58 2.93 2.05 3.53 3.02 10.39-12.74 12.04-30.96 12.04-44.49V62h15.1c-.28 19.61-.78 26.56-1.86 28.03-.49.78-1.27.97-2.55.97-1.26 0-5 0-8.81-.39.69 1.19 1.08 2.84 1.17 4.22 3.63.2 7.25.2 9.22.2 2.25-.2 3.62-.8 4.8-2.26 1.56-2.35 1.95-9.8 2.25-32.63.09-.69.09-2.25.09-2.25h-19.41V42.42h25.3c.78 18.22 2.25 33.69 4.8 45.36-5.39 7.97-12.16 14.92-20.19 20.19 1.08.78 2.84 2.45 3.44 3.33 7.04-4.8 13.03-10.85 18.22-18.03 3.04 11.28 7.36 17.73 13.23 17.73 5.59 0 7.16-4.81 8.03-19.7-1.17-.39-2.84-1.36-3.81-2.35-.5 12.43-1.47 17.55-3.74 17.55-4.2 0-7.82-6.56-10.48-17.94 6.17-9.31 10.78-20.28 14.11-33.23l-4.41-.94zm88.11-15.11h-43.51V30h43.51v9.28zm0 13.72h-43.51V43h43.51v10zm0 14h-43.51V56.83h43.51V67zm4.6-40.91h-52.63v44.74h52.63V26.09zm-52.24 62.13c-4.79 6.59-14.4 14.09-22.64 18.69 1.19.81 2.75 2.4 3.63 3.29 8.43-4.98 18.04-12.89 23.82-20.18l-4.81-1.8zm36.36 2.7c8.24 5.8 18.33 14.19 23.33 19.49l3.83-3.19c-5.3-5.2-15.49-13.2-23.53-18.91l-3.63 2.61zM350.16 79V30.59h-4.6v55.93h4.6v-3.21h30.39v28.39h4.79V83.31h40.97V79h-76.15z"/><path fill="#434caf" d="M363.33 131.67s2 22.66 2 23m-124.6 34.3l30.3-15.8 1.4 4.2-29 15.6m-3.6-18.1h26.7v4.3h-26.7v-4.3m79.27-15.07h4.5v24.6h-4.5v-24.6m7.17-1.33h4.5v24.6h-4.5v-6.72-17.88m-94.44 5.9c4.15 5.5 62.94 66.57 47.5 26.63 25.55 0 39.3-26.63 39.3-26.63v4.3h-86.8v-4.3M85.1 35.91c0 13.64-10.65 24.23-24.4 24.23-11.64 0-19.4-9.96-19.4-19.12 0-9.35 6.4-16.62 15.77-17.15 8.85-.51 13.83 5.51 13.83 11.68 0 6.57-4.89 9.89-9.97 9.89-5.86 0-9.73-5.41-8.33-11.68.6 3.58 3.22 5.85 6 6.17 2.87.33 5.53-1.53 5.53-4.71 0-3.19-2.53-5.18-6.53-5.18-4.87 0-8.8 3.85-8.8 9.29 0 7.4 5.38 12.45 12.1 12.45 8.81 0 16.2-6.43 16.2-16.43 0-10.68-9.26-17.9-20.08-17.9-10.82 0-23.83 9.14-23.83 24.07 0 14.9 12.38 27.19 27.35 27.19 18.17 0 33.17-13.3 33.17-31.38 0-11.61-4.66-24.48-16.51-35.83C110 17.03 122 44.35 122 68.77c0 32.99-26.86 59.73-60 59.73S2 101.76 2 68.77C2 38.71 24.74 13.93 52.2 9.85c20.53-3.04 32.9 12.22 32.9 26.06zm162.57 133.76"/></svg>