
<svg xmlns="http://www.w3.org/2000/svg" width="440" height="130" viewBox="88 35 440 130">
	<style type="text/css">
		@import url('https://fonts.googleapis.com/css2?family=Noto+Sans+JP:wght@300');
	</style>
	<path xmlns="http://www.w3.org/2000/svg" d="m 173.09995,70.90614 c 0,13.64358 -10.64825,24.23186 -24.4011,24.23186 -11.64305,0 -19.3986,-9.95343 -19.3986,-19.11343 0,-9.358856 6.39985,-16.626427 15.7664,-17.159284 8.856,-0.502857 13.8337,5.510571 13.8337,11.682714 0,6.57057 -4.8896,9.88914 -9.96625,9.88914 -5.8687,0 -9.73475,-5.40942 -8.33325,-11.68114 0.59885,3.58486 3.21815,5.85029 5.9984,6.17214 2.86735,0.33243 5.5331,-1.52671 5.5331,-4.71257 0,-3.185284 -2.5318,-5.17657 -6.53375,-5.17657 -4.8652,0 -8.7976,3.849857 -8.7976,9.29171 0,7.40143 5.37485,12.44572 12.09994,12.44572 8.80886,0 16.199,-6.42429 16.199,-16.427 0,-10.679145 -9.2643,-17.904429 -20.08254,-17.904429 -10.8168,0 -23.82725,9.142428 -23.82725,24.075569 0,14.90372 12.38395,27.18686 27.35375,27.18686 18.1612,0 33.1685,-13.29743 33.1685,-31.37857 C 181.7124,60.718428 177.05375,47.848285 165.19975,36.5 197.99994,52.030571 210,79.35171 210,103.76557 210,136.756 183.13685,163.5 150,163.5 c -33.13625,0 -60,-26.744 -60,-59.73443 0,-30.05171 22.7419,-54.838713 50.2009,-58.910998 20.53364,-3.044001 32.89905,12.220285 32.89905,26.051568 z" fill="#434caf"/>
	<!-- <g fill="#000000"> -->
		<text x="225" y="140" font-family="Noto Sans JP" font-size="100" style="fill:#454545; font-weight:300">茨城県</text>
	<!-- </g> -->
</svg>